LG_walk_Faster02																		
version=1																		
nRows=63																		
nColumns=19																		
inDegrees=yes																		
endheader																		
time	ground_force2_vx	ground_force2_vy	ground_force2_vz	ground_force2_px	ground_force2_py	ground_force2_pz	ground_torque2_x	ground_torque2_y	ground_torque2_z	ground_force1_vx	ground_force1_vy	ground_force1_vz	ground_force1_px	ground_force1_py	ground_force1_pz	ground_torque1_x	ground_torque1_y	ground_torque1_z
4.377	0	0	0	0.2	0	-0.3	0	0	0	65.78392	608.519531	38.553539	-0.091443	0	0.260069	-1.00E-05	-0.270153	1.00E-06
4.378	0	0	0	0.2	0	-0.3	0	0	0	64.689674	602.519226	38.083595	-0.091443	0	0.258761	-3.00E-06	-0.254151	0
4.379	0	0	0	0.2	0	-0.3	0	0	0	64.689674	600.99292	37.378418	-0.091443	0	0.258584	-3.00E-06	-0.208319	0.00E+00
4.38	0	0	0	0.2	0	-0.3	0	0	0	64.450348	600.988647	36.516785	-0.091701	0	0.258293	-4.00E-06	-0.208319	-4.00E-06
4.381	0	0	0	0.2	0	-0.3	0	0	0	64.68679	597.198914	36.516621	-0.091778	0	0.258293	-1.50E-05	-0.24982	-4.00E-06
4.382	0	0	0	0.2	0	-0.3	0	0	0	64.685341	595.484375	35.41983	-0.09176	0	0.258075	-4.00E-06	-0.310928	-4.00E-06
4.383	0	0	0	0.2	0	-0.3	0	0	0	64.685341	592.568665	35.26313	-0.09176	0	0.258013	-1.00E-05	-0.24982	-3.00E-06
4.384	0	0	0	0.2	0	-0.3	0	0	0	64.454681	587.419678	35.028141	-0.09176	0	0.256888	-1.00E-05	-0.227241	-2.00E-06
4.385	0	0	0	0.2	0	-0.3	0	0	0	64.37394	587.419678	34.009682	-0.09213	0	0.256888	-1.00E-05	-0.227241	-3.00E-06
4.386	0	0	0	0.2	0	-0.3	0	0	0	63.900337	586.057617	33.85294	-0.092808	0	0.257389	-1.20E-05	-0.227241	-4.00E-06
4.387	0	0	0	0.2	0	-0.3	0	0	0	63.827538	586.057617	33.774406	-0.092808	0	0.257389	-7.00E-06	-0.259221	-4.00E-06
4.388	0	0	0	0.2	0	-0.3	0	0	0	63.743916	579.721313	33.069633	-0.092808	0	0.255578	-1.20E-05	-0.295754	-3.00E-06
4.389	0	0	0	0.2	0	-0.3	0	0	0	63.743916	579.709412	32.442749	-0.092857	0	0.255578	-7.00E-06	-0.295754	-3.00E-06
4.39	0	0	0	0.2	0	-0.3	0	0	0	63.668224	578.168823	32.442749	-0.093019	0	0.255578	-1.20E-05	-0.229519	-3.00E-06
4.391	0	0	0	0.2	0	-0.3	0	0	0	63.901783	576.803284	31.580835	-0.093314	0	0.255693	-7.00E-06	-0.229519	-4.00E-06
4.392	0	0	0	0.2	0	-0.3	0	0	0	63.898891	576.461182	31.267551	-0.093314	0	0.25551	-1.10E-05	-0.277382	-2.00E-06
4.393	0	0	0	0.2	0	-0.3	0	0	0	63.898891	574.226685	30.640787	-0.093282	0	0.254914	-1.00E-06	-0.323624	-4.00E-06
4.394	0	0	0	0.2	0	-0.3	0	0	0	63.038921	571.325256	29.857159	-0.093282	0	0.253895	-1.10E-05	-0.277382	-4.00E-06
4.395	0	0	0	0.2	0	-0.3	0	0	0	63.038921	568.730103	29.857159	-0.093617	0	0.253895	-9.00E-06	-0.175399	-4.00E-06
4.396	0	0	0	0.2	0	-0.3	0	0	0	63.196068	565.647339	29.309004	-0.093617	0	0.25418	-9.00E-06	-0.100055	-4.00E-06
4.397	0	0	0	0.2	0	-0.3	0	0	0	63.196068	565.63623	29.779188	-0.093617	0	0.25418	-6.00E-06	-0.100055	-1.00E-06
4.398	0	0	0	0.2	0	-0.3	0	0	0	63.116055	563.766968	29.309004	-0.093875	0	0.253879	-4.00E-06	-0.180174	-1.00E-06
4.399	0	0	0	0.2	0	-0.3	0	0	0	62.567486	561.717285	28.525579	-0.093983	0	0.25224	-4.00E-06	-0.180174	-1.00E-06
4.4	0	0	0	0.2	0	-0.3	0	0	0	62.336823	558.293579	27.507082	-0.094206	0	0.251469	-2.00E-06	-0.131436	-2.00E-06
4.401	0	0	0	0.2	0	-0.3	0	0	0	62.336823	558.293579	27.428589	-0.094456	0	0.251469	-4.00E-06	-0.131436	-3.00E-06
4.402	0	0	0	0.2	0	-0.3	0	0	0	62.336823	558.293579	26.958729	-0.094601	0	0.251831	-3.00E-06	-0.087074	-3.00E-06
4.403	0	0	0	0.2	0	-0.3	0	0	0	62.333218	555.37207	26.880238	-0.094601	0	0.251831	-5.00E-06	-0.149166	-2.00E-06
4.404	0	0	0	0.2	0	-0.3	0	0	0	62.021809	552.439819	26.880238	-0.094601	0	0.251273	-6.00E-06	-0.149166	-2.00E-06
4.405	0	0	0	0.2	0	-0.3	0	0	0	61.550373	552.439819	26.801826	-0.094619	0	0.250855	-6.00E-06	-0.199779	-3.00E-06
4.406	0	0	0	0.2	0	-0.3	0	0	0	61.395397	553.851562	26.0184	-0.095662	0	0.250929	-9.00E-06	-0.199779	-3.00E-06
4.407	0	0	0	0.2	0	-0.3	0	0	0	61.395397	554.884521	26.018238	-0.095662	0	0.250929	-2.00E-06	-0.132882	-1.00E-06
4.408	0	0	0	0.2	0	-0.3	0	0	0	61.395397	553.851562	25.156521	-0.095344	0	0.250929	-9.00E-06	-0.132882	-1.00E-06
4.409	0	0	0	0.2	0	-0.3	0	0	0	61.233204	550.754944	24.999941	-0.095332	0	0.249663	0.00E+00	-0.092532	-2.00E-06
4.41	0	0	0	0.2	0	-0.3	0	0	0	61.233204	548.706787	24.294886	-0.095332	0	0.249342	-5.00E-06	-0.086757	-3.00E-06
4.411	0	0	0	0.2	0	-0.3	0	0	0	60.843948	545.960815	24.059895	-0.095735	0	0.249307	-1.00E-06	-0.086757	-4.00E-06
4.412	0	0	0	0.2	0	-0.3	0	0	0	60.843948	545.960815	23.58963	-0.095735	0	0.248984	-5.00E-06	-0.127617	-4.00E-06
4.413	0	0	0	0.2	0	-0.3	0	0	0	60.843948	545.960815	23.43293	-0.095735	0	0.248984	-8.00E-06	-0.127617	-4.00E-06
4.414	0	0	0	0.2	0	-0.3	0	0	0	60.688969	545.606323	22.727631	-0.095291	0	0.248763	-8.00E-06	-0.136301	-4.00E-06
4.415	0	0	0	0.2	0	-0.3	0	0	0	60.379005	542.35083	22.414389	-0.095291	0	0.248027	-8.00E-06	-0.121874	-4.00E-06
4.416	0	0	0	0.2	0	-0.3	0	0	0	60.379005	541.330933	22.101028	-0.095291	0	0.247728	-7.00E-06	-0.14394	0.00E+00
4.417	0	0	0	0.2	0	-0.3	0	0	0	60.76754	541.330933	21.631002	-0.095807	0	0.247728	-5.00E-06	-0.075022	-4.00E-06
4.418	0	0	0	0.2	0	-0.3	0	0	0	60.76754	541.330933	21.395853	-0.096071	0	0.247728	-7.00E-06	-0.082873	-2.00E-06
4.419	0	0	0	0.2	0	-0.3	0	0	0	60.219696	540.65094	21.31748	-0.096172	0	0.247384	-9.00E-06	-0.082873	-3.00E-06
4.42	0	0	0	0.2	0	-0.3	0	0	0	60.061829	540.151794	20.690674	-0.096172	0	0.246723	-9.00E-06	-0.082873	-3.00E-06
4.421	0	0	0	0.2	0	-0.3	0	0	0	59.438301	538.07428	20.612267	-0.096341	0	0.246187	-5.00E-06	-0.040219	-3.00E-06
4.422	0	0	0	0.2	0	-0.3	0	0	0	59.438301	538.07428	19.907249	-0.096341	0	0.246387	-5.00E-06	-0.040219	-2.00E-06
4.423	0	0	0	0.2	0	-0.3	0	0	0	60.220421	537.565918	19.907249	-0.096358	0	0.246387	-7.00E-06	-0.09354	-2.00E-06
4.424	0	0	0	0.2	0	-0.3	0	0	0	60.220421	537.565918	19.906967	-0.09667	0	0.246387	-7.00E-06	-0.09354	-2.00E-06
4.425	0	0	0	0.2	0	-0.3	0	0	0	59.359726	537.066772	19.123661	-0.09667	0	0.246105	-7.00E-06	-0.026684	-1.00E-06
4.426	0	0	0	0.2	0	-0.3	0	0	0	59.127621	535.334106	18.888588	-0.09667	0	0.246105	-7.00E-06	0.10639	1.00E-06
4.427	0	0	0	0.2	0	-0.3	0	0	0	58.969753	535.334106	18.888588	-0.09723	0	0.246105	-8.00E-06	0.10639	-1.00E-06
4.428	0	0	0	0.2	0	-0.3	0	0	0	59.127621	535.334106	18.810301	-0.097302	0	0.245508	-6.00E-06	0.098572	-1.00E-06
4.429	0	0	0	0.2	0	-0.3	0	0	0	59.361172	534.678406	18.575348	-0.097302	0	0.24477	-7.00E-06	-0.009262	-1.00E-06
4.43	0	0	0	0.2	0	-0.3	0	0	0	59.361172	534.678406	18.57531	-0.097412	0	0.24477	-5.00E-06	-0.0231	-3.00E-06
4.431	0	0	0	0.2	0	-0.3	0	0	0	58.892624	532.294312	18.026672	-0.097412	0	0.242989	-5.00E-06	-0.0231	-3.00E-06
4.432	0	0	0	0.2	0	-0.3	0	0	0	58.814049	532.294312	17.791761	-0.097526	0	0.242989	-5.00E-06	-0.019556	-4.00E-06
4.433	0	0	0	0.2	0	-0.3	0	0	0	58.654739	534.875122	17.713348	-0.097679	0	0.2431	-4.00E-06	-0.019556	-1.00E-06
4.434	0	0	0	0.2	0	-0.3	0	0	0	58.655464	534.875122	17.086546	-0.097862	0	0.2431	-1.00E-05	-0.04618	-4.00E-06
4.435	0	0	0	0.2	0	-0.3	0	0	0	58.655464	533.849487	17.008255	-0.097862	0	0.242808	-9.00E-06	-0.097233	-4.00E-06
4.436	0	0	0	0.2	0	-0.3	0	0	0	58.655464	528.874878	17.008173	-0.097564	0	0.242286	-1.00E-05	-0.139198	-4.00E-06
4.437	0	0	0	0.2	0	-0.3	0	0	0	58.266209	528.874878	16.616482	-0.097564	0	0.240819	-9.00E-06	-0.139198	-4.00E-06
4.438	0	0	0	0.2	0	-0.3	0	0	0	58.266209	529.914734	16.068007	-0.098018	0	0.240819	-8.00E-06	-0.074854	-3.00E-06
4.439	0	0	0	0.2	0	-0.3	0	0	0	58.266209	530.766785	15.911347	-0.098018	0	0.24196	-5.00E-06	-0.074854	-2.00E-06
